<svg xmlns="http://www.w3.org/2000/svg" xmlns:xlink="http://www.w3.org/1999/xlink" xmlns:lucid="lucid" width="1125.5" height="782"><g transform="translate(-294.99999999999994 -139)" lucid:page-tab-id="0_0"><path d="M0 0h1500v1000H0z" fill="#fff"/><path d="M1120 326a6 6 0 0 1 6-6h268a6 6 0 0 1 6 6v158.67a6 6 0 0 1-6 6h-268a6 6 0 0 1-6-6z" fill-opacity="0"/><path d="M1123.7 320.47l.45-.18.9-.23.95-.07h1.97m3.94 0h3.95m3.94 0h3.93m3.95 0h3.94m3.94 0h3.94m3.94 0h3.94m3.94 0h3.95m3.94 0h3.95m3.94 0h3.93m3.94 0h3.94m3.95 0h3.94m3.93 0h3.95m3.94 0h3.94m3.94 0h3.94m3.94 0h3.94m3.95 0h3.94m3.95 0h3.94m3.93 0h3.94m3.94 0h3.95m3.94 0h3.93m3.95 0h3.94m3.94 0h3.94m3.94 0h3.94m3.94 0h3.95m3.94 0h3.95m3.94 0h3.93m3.94 0h3.94m3.95 0h3.94m3.93 0h3.95m3.94 0h3.94m3.94 0h3.94m3.94 0h3.94m3.95 0h3.94m3.95 0h3.94m3.93 0h1.97l.94.07.9.22.45.17m3.23 3.24l.18.45.23.9.07.95v1.98m0 3.97v3.97m0 3.96v3.97m0 3.97v3.96m0 3.97v3.97m0 3.96v3.97m0 3.97v3.96m0 3.97v3.97m0 3.96v3.97m0 3.97v3.96m0 3.97v3.97m0 3.96v3.97m0 3.97v3.96m0 3.97v3.97m0 3.96v3.97m0 3.97v3.96m0 3.97v3.97m0 3.96v3.97m0 3.97v3.96m0 3.97v3.97m0 3.96v2l-.07.93-.22.92-.17.44m-3.24 3.23l-.45.17-.9.22-.95.07h-1.97m-3.94 0h-3.95m-3.94 0h-3.93m-3.95 0h-3.94m-3.94 0h-3.94m-3.94 0h-3.94m-3.94 0h-3.95m-3.94 0h-3.95m-3.94 0h-3.93m-3.94 0h-3.94m-3.95 0h-3.94m-3.93 0h-3.95m-3.94 0h-3.94m-3.94 0h-3.94m-3.94 0h-3.94m-3.95 0h-3.94m-3.95 0h-3.94m-3.93 0h-3.94m-3.94 0h-3.95m-3.94 0h-3.93m-3.95 0h-3.94m-3.94 0h-3.94m-3.94 0h-3.94m-3.94 0h-3.95m-3.94 0h-3.95m-3.94 0h-3.93m-3.94 0h-3.94m-3.95 0h-3.94m-3.93 0h-3.95m-3.94 0h-3.94m-3.94 0h-3.94m-3.94 0h-3.94m-3.95 0h-3.94m-3.95 0h-3.94m-3.93 0H1126l-.94-.08-.9-.23-.45-.18m-3.23-3.24l-.18-.44-.23-.9-.07-.95v-2m0-3.95v-3.97m0-3.97v-3.96m0-3.97v-3.97m0-3.96v-3.97m0-3.97v-3.96m0-3.97v-3.97m0-3.96v-3.97m0-3.97v-3.96m0-3.97v-3.97m0-3.96v-3.97m0-3.97v-3.96m0-3.97v-3.97m0-3.96v-3.97m0-3.97v-3.96m0-3.97v-3.97m0-3.96v-3.97m0-3.97v-3.96m0-3.97v-3.97m0-3.96v-3.97m0-3.97V326l.07-.94.22-.9.17-.45" stroke="#3a414a" fill="none"/><path d="M1220 606a6 6 0 0 1 6-6h148a6 6 0 0 1 6 6v148a6 6 0 0 1-6 6h-148a6 6 0 0 1-6-6z" stroke="#3a414a" fill="#fff"/><use xlink:href="#a" transform="matrix(1,0,0,1,1225,605) translate(30.6857638888889 70.30164930555556)"/><use xlink:href="#b" transform="matrix(1,0,0,1,1225,605) translate(23.529730902777786 93.97786458333333)"/><path d="M1200 586a6 6 0 0 1 6-6h148a6 6 0 0 1 6 6v148a6 6 0 0 1-6 6h-148a6 6 0 0 1-6-6z" stroke="#3a414a" fill="#fff"/><use xlink:href="#a" transform="matrix(1,0,0,1,1205,585) translate(30.6857638888889 70.30164930555556)"/><use xlink:href="#b" transform="matrix(1,0,0,1,1205,585) translate(23.529730902777786 93.97786458333333)"/><path d="M600 255.33a6 6 0 0 1 6-6h148a6 6 0 0 1 6 6v148a6 6 0 0 1-6 6H606a6 6 0 0 1-6-6z" stroke="#3a414a" fill="#fff"/><use xlink:href="#c" transform="matrix(1,0,0,1,604.9999999999612,254.33333333333337) translate(28.48307291666667 70.30164930555556)"/><use xlink:href="#d" transform="matrix(1,0,0,1,604.9999999999612,254.33333333333337) translate(84.88498263888889 70.30164930555556)"/><use xlink:href="#e" transform="matrix(1,0,0,1,604.9999999999612,254.33333333333337) translate(35.94835069444445 93.97786458333333)"/><path d="M884 255.33a6 6 0 0 1 6-6h148a6 6 0 0 1 6 6v148a6 6 0 0 1-6 6H890a6 6 0 0 1-6-6z" stroke="#3a414a" fill="#fff"/><use xlink:href="#f" transform="matrix(1,0,0,1,888.9999999999225,254.33333333333337) translate(30.91905381944445 79.67664930555556)"/><path d="M316 255.33a6 6 0 0 1 6-6h148a6 6 0 0 1 6 6v148a6 6 0 0 1-6 6H322a6 6 0 0 1-6-6z" stroke="#3a414a" fill="#fff"/><use xlink:href="#g" transform="matrix(1,0,0,1,321,254.33333333333337) translate(50.72699652777778 70.30164930555556)"/><use xlink:href="#h" transform="matrix(1,0,0,1,321,254.33333333333337) translate(22.504340277777786 93.97786458333333)"/><path d="M316 564.67a6 6 0 0 1 6-6h148a6 6 0 0 1 6 6v148a6 6 0 0 1-6 6H322a6 6 0 0 1-6-6z" stroke="#3a414a" fill="#fff"/><use xlink:href="#g" transform="matrix(1,0,0,1,321,563.6666666666666) translate(50.72699652777778 70.30164930555556)"/><use xlink:href="#h" transform="matrix(1,0,0,1,321,563.6666666666666) translate(22.504340277777786 93.97786458333333)"/><path d="M600 564.67a6 6 0 0 1 6-6h148a6 6 0 0 1 6 6v148a6 6 0 0 1-6 6H606a6 6 0 0 1-6-6z" stroke="#3a414a" fill="#fff"/><use xlink:href="#c" transform="matrix(1,0,0,1,604.9999999999612,563.6666666666666) translate(28.48307291666667 70.30164930555556)"/><use xlink:href="#d" transform="matrix(1,0,0,1,604.9999999999612,563.6666666666666) translate(84.88498263888889 70.30164930555556)"/><use xlink:href="#e" transform="matrix(1,0,0,1,604.9999999999612,563.6666666666666) translate(35.94835069444445 93.97786458333333)"/><path d="M1179 564.67a6 6 0 0 1 6-6h148a6 6 0 0 1 6 6v148a6 6 0 0 1-6 6h-148a6 6 0 0 1-6-6z" stroke="#3a414a" fill="#fff"/><use xlink:href="#a" transform="matrix(1,0,0,1,1183.9998999999418,563.6666666666666) translate(30.6857638888889 70.30164930555556)"/><use xlink:href="#b" transform="matrix(1,0,0,1,1183.9998999999418,563.6666666666666) translate(23.529730902777786 93.97786458333333)"/><path d="M887.33 564.67a6 6 0 0 1 6-6h148a6 6 0 0 1 6 6v148a6 6 0 0 1-6 6h-148a6 6 0 0 1-6-6z" stroke="#3a414a" fill="#fff"/><use xlink:href="#i" transform="matrix(1,0,0,1,892.3333333332753,563.6666666666665) translate(30.6857638888889 70.30164930555556)"/><use xlink:href="#j" transform="matrix(1,0,0,1,892.3333333332753,563.6666666666665) translate(38.12391493055556 93.97786458333333)"/><path d="M559.67 329.33h23.45" stroke="#3a414a" fill="none"/><path d="M559.68 329.8h-.57l.07-.45-.03-.5h.54z" stroke="#3a414a" stroke-width=".05" fill="#3a414a"/><path d="M597.88 329.33l-14.26 4.64v-9.27z" stroke="#3a414a" fill="#3a414a"/><path d="M492.88 329.33h23.45" stroke="#3a414a" fill="none"/><path d="M478.12 329.33l14.26-4.63v9.27z" stroke="#3a414a" fill="#3a414a"/><path d="M516.83 329.32l.03.5h-.54v-.96h.57z" stroke="#3a414a" stroke-width=".05" fill="#3a414a"/><path d="M843.67 329.33h23.45" stroke="#3a414a" fill="none"/><path d="M843.68 329.8h-.57l.07-.45-.03-.5h.54z" stroke="#3a414a" stroke-width=".05" fill="#3a414a"/><path d="M881.88 329.33l-14.26 4.64v-9.27z" stroke="#3a414a" fill="#3a414a"/><path d="M776.88 329.33h23.45" stroke="#3a414a" fill="none"/><path d="M762.12 329.33l14.26-4.63v9.27z" stroke="#3a414a" fill="#3a414a"/><path d="M800.83 329.32l.03.5h-.54v-.96h.57z" stroke="#3a414a" stroke-width=".05" fill="#3a414a"/><path d="M558.67 329.33c0 11.42-9.26 20.67-20.67 20.67-11.4 0-20.67-9.25-20.67-20.67 0-11.4 9.26-20.66 20.67-20.66 11.4 0 20.67 9.25 20.67 20.66zM842.67 329.33c0 11.42-9.26 20.67-20.67 20.67-11.4 0-20.67-9.25-20.67-20.67 0-11.4 9.26-20.66 20.67-20.66 11.4 0 20.67 9.25 20.67 20.66z" stroke="#3a414a" fill="#f2f3f5"/><path d="M560.17 638.67h23.45" stroke="#3a414a" fill="none"/><path d="M560.18 639.14h-.57l.07-.46-.03-.5h.54z" stroke="#3a414a" stroke-width=".05" fill="#3a414a"/><path d="M598.38 638.67l-14.26 4.63v-9.27z" stroke="#3a414a" fill="#3a414a"/><path d="M492.88 638.67h23.95" stroke="#3a414a" fill="none"/><path d="M478.12 638.67l14.26-4.64v9.27z" stroke="#3a414a" fill="#3a414a"/><path d="M517.33 638.65l.03.5h-.54v-.96h.57z" stroke="#3a414a" stroke-width=".05" fill="#3a414a"/><path d="M559.17 638.67c0 11.4-9.26 20.66-20.67 20.66-11.4 0-20.67-9.25-20.67-20.66 0-11.42 9.26-20.67 20.67-20.67 11.4 0 20.67 9.25 20.67 20.67z" stroke="#3a414a" fill="#f2f3f5"/><path d="M843.17 638.67h27.28" stroke="#3a414a" fill="none"/><path d="M843.18 639.14h-.57l.07-.46-.03-.5h.54z" stroke="#3a414a" stroke-width=".05" fill="#3a414a"/><path d="M885.2 638.67l-14.25 4.63v-9.27z" stroke="#3a414a" fill="#3a414a"/><path d="M776.88 638.67h22.95" stroke="#3a414a" fill="none"/><path d="M762.12 638.67l14.26-4.64v9.27z" stroke="#3a414a" fill="#3a414a"/><path d="M800.33 638.65l.03.5h-.54v-.96h.57z" stroke="#3a414a" stroke-width=".05" fill="#3a414a"/><path d="M842.17 638.67c0 11.4-9.26 20.66-20.67 20.66-11.4 0-20.67-9.25-20.67-20.66 0-11.42 9.26-20.67 20.67-20.67 11.4 0 20.67 9.25 20.67 20.67z" stroke="#3a414a" fill="#f2f3f5"/><path d="M1134.83 638.67h27.28" stroke="#3a414a" fill="none"/><path d="M1134.85 639.14h-.57l.06-.46-.03-.5h.55z" stroke="#3a414a" stroke-width=".05" fill="#3a414a"/><path d="M1176.88 638.67l-14.27 4.63.02-9.27z" stroke="#3a414a" fill="#3a414a"/><path d="M1064.22 638.67h27.28" stroke="#3a414a" fill="none"/><path d="M1049.45 638.67l14.27-4.64v9.27z" stroke="#3a414a" fill="#3a414a"/><path d="M1092 638.65l.03.5h-.54v-.96h.55z" stroke="#3a414a" stroke-width=".05" fill="#3a414a"/><path d="M1133.83 638.67c0 11.4-9.25 20.66-20.66 20.66-11.42 0-20.67-9.25-20.67-20.66 0-11.42 9.25-20.67 20.67-20.67 11.4 0 20.66 9.25 20.66 20.67z" stroke="#3a414a" fill="#f2f3f5"/><path d="M316 166a6 6 0 0 1 6-6h272a6 6 0 0 1 6 6v48a6 6 0 0 1-6 6H322a6 6 0 0 1-6-6z" stroke="#000" stroke-opacity="0" stroke-width="2" fill="#fff" fill-opacity="0"/><use xlink:href="#k" transform="matrix(1,0,0,1,321,165) translate(0 34.35872395833333)"/><path d="M316 486a6 6 0 0 1 6-6h272a6 6 0 0 1 6 6v48a6 6 0 0 1-6 6H322a6 6 0 0 1-6-6z" stroke="#000" stroke-opacity="0" stroke-width="2" fill="#fff" fill-opacity="0"/><use xlink:href="#l" transform="matrix(1,0,0,1,320.99999999999994,485) translate(0 34.35872395833333)"/><use xlink:href="#m" transform="matrix(1,0,0,1,320.99999999999994,485) translate(71.54947916666663 34.35872395833333)"/><path d="M1180.5 820h199M1180.5 820h-.5M1379.5 820h.5M1180 780.5v79M1180 780.5v-.5M1180 859.5v.5M1380 780.5v79M1380 780.5v-.5M1380 859.5v.5" stroke="#3a414a" fill="none"/><path d="M1200 846a6 6 0 0 1 6-6h148a6 6 0 0 1 6 6v48a6 6 0 0 1-6 6h-148a6 6 0 0 1-6-6z" stroke="#000" stroke-opacity="0" stroke-width="2" fill="#fff" fill-opacity="0"/><use xlink:href="#n" transform="matrix(1,0,0,1,1205,845) translate(17.43706597222227 21.92664930555554)"/><use xlink:href="#o" transform="matrix(1,0,0,1,1205,845) translate(34.52690972222225 45.6028645833333)"/><path d="M837.33 746a6 6 0 0 1 6-6h248a6 6 0 0 1 6 6v148a6 6 0 0 1-6 6h-248a6 6 0 0 1-6-6z" fill="#fff" fill-opacity="0"/><path d="M841.04 740.47l.44-.18.9-.23.95-.07h2m4 0h4m4 0h4m4 0h4m4 0h4m4 0h4m4 0h4m4 0h4m4 0h4m4 0h4m4 0h4m4 0h4m4 0h4m4 0h4m4 0h4m4 0h4m4 0h4m4 0h4m4 0h4m4 0h4m4 0h4m4 0h4m4 0h4m4 0h4m4 0h4m4 0h4m4 0h4m4 0h4m4 0h4m4 0h4m4 0h4m4 0h2l.94.07.92.22.42.17m3.24 3.24l.18.45.22.9.07.95v1.95m0 3.9v3.9m0 3.88v3.9m0 3.9v3.9m0 3.88v3.9m0 3.9v3.9m0 3.9v3.88m0 3.9v3.9m0 3.9v3.88m0 3.9v3.9m0 3.9v3.88m0 3.9v3.9m0 3.9v3.88m0 3.9v3.9m0 3.88v3.9m0 3.9v3.9m0 3.88v3.9m0 3.9v3.9m0 3.88v3.9m0 3.9V894l-.07.94-.22.9-.18.45m-3.24 3.23l-.43.18-.93.23-.94.07h-2m-4 0h-4m-4 0h-4m-4 0h-4m-4 0h-4m-4 0h-4m-4 0h-4m-4 0h-4m-4 0h-4m-4 0h-4m-4 0h-4m-4 0h-4m-4 0h-4m-4 0h-4m-4 0h-4m-4 0h-4m-4 0h-4m-4 0h-4m-4 0h-4m-4 0h-4m-4 0h-4m-4 0h-4m-4 0h-4m-4 0h-4m-4 0h-4m-4 0h-4m-4 0h-4m-4 0h-4m-4 0h-4m-4 0h-4m-4 0h-4m-4 0h-2l-.94-.07-.92-.22-.44-.17m-3.23-3.24l-.17-.45-.22-.9-.07-.95v-1.95m0-3.9v-3.9m0-3.88v-3.9m0-3.9v-3.9m0-3.88v-3.9m0-3.9v-3.9m0-3.9v-3.88m0-3.9v-3.9m0-3.9v-3.88m0-3.9v-3.9m0-3.9v-3.88m0-3.9v-3.9m0-3.9v-3.88m0-3.9v-3.9m0-3.88V783m0-3.9v-3.9m0-3.88v-3.9m0-3.9v-3.9m0-3.88v-3.9m0-3.9V746l.08-.94.23-.9.18-.45" stroke="#3a414a" fill="none"/><use xlink:href="#p" transform="matrix(1,0,0,1,842.3333333332753,745) translate(23.480902777777786 32.80164930555556)"/><use xlink:href="#q" transform="matrix(1,0,0,1,842.3333333332753,745) translate(66.90538194444446 32.80164930555556)"/><use xlink:href="#r" transform="matrix(1,0,0,1,842.3333333332753,745) translate(163.3897569444444 32.80164930555556)"/><use xlink:href="#s" transform="matrix(1,0,0,1,842.3333333332753,745) translate(199.75043402777777 32.80164930555556)"/><use xlink:href="#t" transform="matrix(1,0,0,1,842.3333333332753,745) translate(38.091362847222214 56.47786458333333)"/><use xlink:href="#u" transform="matrix(1,0,0,1,842.3333333332753,745) translate(89.18728298611111 56.47786458333333)"/><use xlink:href="#v" transform="matrix(1,0,0,1,842.3333333332753,745) translate(125 80.1540798611111)"/><use xlink:href="#p" transform="matrix(1,0,0,1,842.3333333332753,745) translate(12.0334201388889 103.83029513888887)"/><use xlink:href="#q" transform="matrix(1,0,0,1,842.3333333332753,745) translate(55.457899305555564 103.83029513888887)"/><use xlink:href="#w" transform="matrix(1,0,0,1,842.3333333332753,745) translate(151.94227430555554 103.83029513888887)"/><use xlink:href="#s" transform="matrix(1,0,0,1,842.3333333332753,745) translate(211.19791666666663 103.83029513888887)"/><use xlink:href="#x" transform="matrix(1,0,0,1,842.3333333332753,745) translate(73.60026041666667 127.50651041666664)"/><path d="M967.33 739v-19.33" stroke="#3a414a" fill="none"/><path d="M967.8 739.5h-.94v-.5h.95zM967.8 719.68h-.94v-.5h.95z" stroke="#3a414a" stroke-width=".05" fill="#3a414a"/><path d="M1213.88 440.67h23.45" stroke="#3a414a" fill="none"/><path d="M1199.12 440.67l14.26-4.64v9.27z" stroke="#3a414a" fill="#3a414a"/><path d="M1237.83 440.65l.03.5h-.54v-.96h.57z" stroke="#3a414a" stroke-width=".05" fill="#3a414a"/><path d="M1280.67 440.67h23.45" stroke="#3a414a" fill="none"/><path d="M1280.68 441.14h-.57l.07-.46-.03-.5h.54z" stroke="#3a414a" stroke-width=".05" fill="#3a414a"/><path d="M1318.88 440.67l-14.26 4.63v-9.27z" stroke="#3a414a" fill="#3a414a"/><path d="M1279.67 440.67c0 11.4-9.26 20.66-20.67 20.66-11.4 0-20.67-9.25-20.67-20.66 0-11.42 9.26-20.67 20.67-20.67 11.4 0 20.67 9.25 20.67 20.67z" stroke="#3a414a" fill="#f2f3f5"/><path d="M1129 346a6 6 0 0 1 6-6h248a6 6 0 0 1 6 6v29.33a6 6 0 0 1-6 6h-248a6 6 0 0 1-6-6z" stroke="#000" stroke-opacity="0" fill="#fff" fill-opacity="0"/><g><use xlink:href="#y" transform="matrix(1,0,0,1,1133.9998999999418,345) translate(11.745876736111128 22.739149305555554)"/><use xlink:href="#z" transform="matrix(1,0,0,1,1133.9998999999418,345) translate(163.22157118055554 22.739149305555554)"/></g><path d="M1259 381.83V419" stroke="#3a414a" fill="none"/><path d="M1259.47 381.85h-.94v-.52h.94zM1259.47 419.55l-.45-.05-.5.03V419h.95z" stroke="#3a414a" stroke-width=".05" fill="#3a414a"/><defs><path fill="#3a414a" d="M558-1225V0H428v-1225H21v-130h954v130H558" id="A"/><path fill="#3a414a" d="M52-478c0-256 228-501 485-501 264 0 489 248 480 516H180c0 180 174 355 357 355 148 0 301-110 347-219l130 23C955-140 749 17 537 22 280 28 52-222 52-478zm815-115c-38-129-172-257-330-256-158 0-295 130-340 256h670" id="B"/><path fill="#3a414a" d="M455-849c-173 0-251 180-251 371V0H74v-957h130v106c60-85 144-128 251-128 146 0 245 69 296 208 37-139 135-208 295-208 233 0 349 167 349 501V0h-130v-478c0-247-73-371-219-371-169 0-241 180-241 371V0H675l-1-478c0-247-73-371-219-371" id="C"/><path fill="#3a414a" d="M209-478c0 191 154 370 342 370 187 0 348-181 348-370S737-849 551-849c-188 0-342 180-342 371zm820 0c0 258-224 500-478 500-147 0-262-65-347-196v573H74V-957h130v174c85-131 200-196 347-196 256 0 478 244 478 501" id="D"/><path fill="#3a414a" d="M881-477c0-189-160-372-351-372-189 0-348 181-348 372s160 369 348 369 351-180 351-369zm-829-1c0-256 220-501 478-501 257 0 481 246 481 502S785 22 530 22C276 22 52-223 52-478" id="E"/><path fill="#3a414a" d="M550-827c-191 0-346 159-346 349V0H72v-957h132v174c85-116 198-174 339-174h204v174c-69-29-134-44-197-44" id="F"/><path fill="#3a414a" d="M497-108c108 0 303-51 303-143v-220c-2 23-338 19-365 38-104 20-200 82-200 182 0 95 87 143 262 143zm28-871c161 0 405 100 405 248v579c0 27 16 41 48 44-1 21-3 64-5 129-72-4-122-33-151-87-82 59-188 88-318 88C233 22 97-70 97-253c0-145 124-253 248-288 70-20 368-9 427-58 17-9 27-25 29-46-1 7-1-13-1-60 0-84-168-147-260-147-166 0-269 58-309 174l-126-27c31-178 203-274 420-274" id="G"/><path fill="#3a414a" d="M86-1355h132V0H86v-1355" id="H"/><g id="a"><use transform="matrix(0.010850694444444444,0,0,0.010850694444444444,0,0)" xlink:href="#A"/><use transform="matrix(0.010850694444444444,0,0,0.010850694444444444,11.50173611111111,0)" xlink:href="#B"/><use transform="matrix(0.010850694444444444,0,0,0.010850694444444444,23.70876736111111,0)" xlink:href="#C"/><use transform="matrix(0.010850694444444444,0,0,0.010850694444444444,40.494791666666664,0)" xlink:href="#D"/><use transform="matrix(0.010850694444444444,0,0,0.010850694444444444,52.57161458333333,0)" xlink:href="#E"/><use transform="matrix(0.010850694444444444,0,0,0.010850694444444444,64.77864583333333,0)" xlink:href="#F"/><use transform="matrix(0.010850694444444444,0,0,0.010850694444444444,73.20963541666666,0)" xlink:href="#G"/><use transform="matrix(0.010850694444444444,0,0,0.010850694444444444,84.77647569444443,0)" xlink:href="#H"/></g><path fill="#3a414a" d="M695-649l-152-510-156 510h308zM888 0L732-517H348L192 0H57l406-1355h160L1029 0H888" id="I"/><path fill="#3a414a" d="M240-1205c-40 0-79-36-79-76s39-76 79-76c41 0 78 35 78 76s-37 76-78 76zM47-957h257V0H174v-827H47v-130" id="J"/><path fill="#3a414a" d="M51-478c0-256 221-509 478-501 201 6 353 126 426 274H803c-71-96-163-144-274-144-189 0-348 180-348 372 0 191 160 369 348 369 100 0 189-44 266-132h155C852-65 712 22 529 22 275 22 51-223 51-478" id="K"/><path fill="#3a414a" d="M406 0C279 4 176-105 176-232v-595H26v-130c75 0 120-17 137-51 9-17 13-69 13-155h130v206h241v130H306v595c0 70 49 105 146 105 18 0 78-3 95-3V0H406" id="L"/><path fill="#3a414a" d="M545-849c-196 0-341 171-341 371V0H74v-957h130v174c77-131 190-196 341-196 285 0 449 200 449 493V0H862v-478c2-219-106-371-317-371" id="M"/><g id="b"><use transform="matrix(0.010850694444444444,0,0,0.010850694444444444,0,0)" xlink:href="#I"/><use transform="matrix(0.010850694444444444,0,0,0.010850694444444444,12.47829861111111,0)" xlink:href="#D"/><use transform="matrix(0.010850694444444444,0,0,0.010850694444444444,24.55512152777778,0)" xlink:href="#D"/><use transform="matrix(0.010850694444444444,0,0,0.010850694444444444,36.63194444444444,0)" xlink:href="#H"/><use transform="matrix(0.010850694444444444,0,0,0.010850694444444444,40.48394097222222,0)" xlink:href="#J"/><use transform="matrix(0.010850694444444444,0,0,0.010850694444444444,44.82421875,0)" xlink:href="#K"/><use transform="matrix(0.010850694444444444,0,0,0.010850694444444444,56.58637152777778,0)" xlink:href="#G"/><use transform="matrix(0.010850694444444444,0,0,0.010850694444444444,67.63237847222221,0)" xlink:href="#L"/><use transform="matrix(0.010850694444444444,0,0,0.010850694444444444,74.27300347222221,0)" xlink:href="#J"/><use transform="matrix(0.010850694444444444,0,0,0.010850694444444444,78.61328124999999,0)" xlink:href="#E"/><use transform="matrix(0.010850694444444444,0,0,0.010850694444444444,90.82031249999997,0)" xlink:href="#M"/></g><path fill="#3a414a" d="M892-988c1-180-155-261-350-261-239 0-359 83-359 250 0 109 72 186 218 225 134 36 273 57 404 101 148 49 217 165 217 318 0 218-259 377-488 377C285 22 54-135 53-369h130c6 176 157 261 349 261 178 0 360-88 360-250 0-109-72-188-217-228-134-37-272-59-404-103C123-738 53-851 53-998c0-227 241-381 478-381 258 0 497 146 491 391H892" id="N"/><path fill="#3a414a" d="M204-656l437-331 87 99-330 254L782 0H626L289-554l-85 65V0H72v-1355h132v699" id="O"/><g id="c"><use transform="matrix(0.010850694444444444,0,0,0.010850694444444444,0,0)" xlink:href="#N"/><use transform="matrix(0.010850694444444444,0,0,0.010850694444444444,12.20703125,0)" xlink:href="#H"/><use transform="matrix(0.010850694444444444,0,0,0.010850694444444444,16.05902777777778,0)" xlink:href="#G"/><use transform="matrix(0.010850694444444444,0,0,0.010850694444444444,27.62586805555556,0)" xlink:href="#K"/><use transform="matrix(0.010850694444444444,0,0,0.010850694444444444,39.388020833333336,0)" xlink:href="#O"/></g><g id="d"><use transform="matrix(0.010850694444444444,0,0,0.010850694444444444,0,0)" xlink:href="#I"/><use transform="matrix(0.010850694444444444,0,0,0.010850694444444444,12.47829861111111,0)" xlink:href="#D"/><use transform="matrix(0.010850694444444444,0,0,0.010850694444444444,24.55512152777778,0)" xlink:href="#D"/></g><path fill="#3a414a" d="M898-260C898-89 674 20 489 20 280 20 75-78 57-254l126-27c2 114 176 171 313 171 113 0 265-50 265-150 0-60-40-102-120-127-21-6-104-22-252-42-166-23-242-71-302-158-134-339 365-481 654-327 94 50 148 120 161 213l-126 27c-25-116-134-174-329-174-116 0-251 47-251 149 0 73 54 127 164 147 83 15 168 18 253 29 83 11 158 46 225 101 40 33 60 87 60 162" id="P"/><g id="e"><use transform="matrix(0.010850694444444444,0,0,0.010850694444444444,0,0)" xlink:href="#D"/><use transform="matrix(0.010850694444444444,0,0,0.010850694444444444,12.076822916666666,0)" xlink:href="#F"/><use transform="matrix(0.010850694444444444,0,0,0.010850694444444444,20.16059027777778,0)" xlink:href="#E"/><use transform="matrix(0.010850694444444444,0,0,0.010850694444444444,32.36762152777778,0)" xlink:href="#K"/><use transform="matrix(0.010850694444444444,0,0,0.010850694444444444,44.12977430555556,0)" xlink:href="#B"/><use transform="matrix(0.010850694444444444,0,0,0.010850694444444444,56.33680555555555,0)" xlink:href="#P"/><use transform="matrix(0.010850694444444444,0,0,0.010850694444444444,67.22005208333333,0)" xlink:href="#P"/></g><path fill="#3a414a" d="M848-827c4-216-138-398-348-398H204v1095h296c203 6 348-189 348-398v-299zm130 299C987-254 769 0 500 0H74v-1355h426c267-9 478 255 478 528v299" id="Q"/><path fill="#3a414a" d="M922-478c0-187-188-371-375-371S209-669 209-478c0 190 155 370 343 370 187 0 370-183 370-370zm130 0c0 255-245 500-500 500-147 0-263-65-348-196V0H72v-1355h132v572c82-131 196-196 343-196 256 0 505 245 505 501" id="R"/><g id="f"><use transform="matrix(0.010850694444444444,0,0,0.010850694444444444,0,0)" xlink:href="#Q"/><use transform="matrix(0.010850694444444444,0,0,0.010850694444444444,11.903211805555555,0)" xlink:href="#G"/><use transform="matrix(0.010850694444444444,0,0,0.010850694444444444,22.94921875,0)" xlink:href="#L"/><use transform="matrix(0.010850694444444444,0,0,0.010850694444444444,29.58984375,0)" xlink:href="#G"/><use transform="matrix(0.010850694444444444,0,0,0.010850694444444444,41.15668402777778,0)" xlink:href="#R"/><use transform="matrix(0.010850694444444444,0,0,0.010850694444444444,53.50477430555556,0)" xlink:href="#G"/><use transform="matrix(0.010850694444444444,0,0,0.010850694444444444,65.07161458333333,0)" xlink:href="#P"/><use transform="matrix(0.010850694444444444,0,0,0.010850694444444444,75.9548611111111,0)" xlink:href="#B"/></g><g id="g"><use transform="matrix(0.010850694444444444,0,0,0.010850694444444444,0,0)" xlink:href="#N"/><use transform="matrix(0.010850694444444444,0,0,0.010850694444444444,12.20703125,0)" xlink:href="#H"/><use transform="matrix(0.010850694444444444,0,0,0.010850694444444444,16.05902777777778,0)" xlink:href="#G"/><use transform="matrix(0.010850694444444444,0,0,0.010850694444444444,27.62586805555556,0)" xlink:href="#K"/><use transform="matrix(0.010850694444444444,0,0,0.010850694444444444,39.388020833333336,0)" xlink:href="#O"/></g><path fill="#3a414a" d="M1188-1355h137L1082 0H941L688-1071 431 0H296L53-1355h135L376-296l246-1059h129l252 1059" id="S"/><g id="h"><use transform="matrix(0.010850694444444444,0,0,0.010850694444444444,0,0)" xlink:href="#S"/><use transform="matrix(0.010850694444444444,0,0,0.010850694444444444,15.831163194444445,0)" xlink:href="#E"/><use transform="matrix(0.010850694444444444,0,0,0.010850694444444444,28.038194444444443,0)" xlink:href="#F"/><use transform="matrix(0.010850694444444444,0,0,0.010850694444444444,37.33723958333333,0)" xlink:href="#O"/><use transform="matrix(0.010850694444444444,0,0,0.010850694444444444,46.49522569444444,0)" xlink:href="#P"/><use transform="matrix(0.010850694444444444,0,0,0.010850694444444444,57.37847222222222,0)" xlink:href="#D"/><use transform="matrix(0.010850694444444444,0,0,0.010850694444444444,69.45529513888889,0)" xlink:href="#G"/><use transform="matrix(0.010850694444444444,0,0,0.010850694444444444,81.02213541666666,0)" xlink:href="#K"/><use transform="matrix(0.010850694444444444,0,0,0.010850694444444444,92.78428819444441,0)" xlink:href="#B"/></g><g id="i"><use transform="matrix(0.010850694444444444,0,0,0.010850694444444444,0,0)" xlink:href="#A"/><use transform="matrix(0.010850694444444444,0,0,0.010850694444444444,11.50173611111111,0)" xlink:href="#B"/><use transform="matrix(0.010850694444444444,0,0,0.010850694444444444,23.70876736111111,0)" xlink:href="#C"/><use transform="matrix(0.010850694444444444,0,0,0.010850694444444444,40.494791666666664,0)" xlink:href="#D"/><use transform="matrix(0.010850694444444444,0,0,0.010850694444444444,52.57161458333333,0)" xlink:href="#E"/><use transform="matrix(0.010850694444444444,0,0,0.010850694444444444,64.77864583333333,0)" xlink:href="#F"/><use transform="matrix(0.010850694444444444,0,0,0.010850694444444444,73.20963541666666,0)" xlink:href="#G"/><use transform="matrix(0.010850694444444444,0,0,0.010850694444444444,84.77647569444443,0)" xlink:href="#H"/></g><path fill="#3a414a" d="M178-957l334 813 331-813h142L595 0H424L33-957h145" id="T"/><g id="j"><use transform="matrix(0.010850694444444444,0,0,0.010850694444444444,0,0)" xlink:href="#N"/><use transform="matrix(0.010850694444444444,0,0,0.010850694444444444,12.20703125,0)" xlink:href="#B"/><use transform="matrix(0.010850694444444444,0,0,0.010850694444444444,24.4140625,0)" xlink:href="#F"/><use transform="matrix(0.010850694444444444,0,0,0.010850694444444444,33.713107638888886,0)" xlink:href="#T"/><use transform="matrix(0.010850694444444444,0,0,0.010850694444444444,45.44270833333333,0)" xlink:href="#J"/><use transform="matrix(0.010850694444444444,0,0,0.010850694444444444,49.78298611111111,0)" xlink:href="#K"/><use transform="matrix(0.010850694444444444,0,0,0.010850694444444444,61.545138888888886,0)" xlink:href="#B"/></g><path fill="#3a414a" d="M562-1192V0H397v-1192H1v-165h967v165H562" id="U"/><path fill="#3a414a" d="M535-805c-177 0-317 145-317 321V0H51v-970h167v134c85-89 189-134 310-134h218v218c-83-35-153-53-211-53" id="V"/><path fill="#3a414a" d="M484-144c91 0 275-43 275-120v-184c-54 18-283 13-339 27-84 21-172 73-172 157 0 80 79 120 236 120zm27-847c168 0 413 106 413 260v563c0 15 16 23 48 26-4 64-6 118-6 163-81-4-138-29-172-76-80 51-181 76-304 76C213 21 75-75 75-266c0-155 132-276 270-302-15-8 340-16 395-49 13-7 20-20 21-39-1 24-2 8-2-49 0-71-154-124-234-124-152 0-248 58-288 173L79-690c32-191 203-301 432-301" id="W"/><path fill="#3a414a" d="M860-484c0-175-137-342-310-342-172 0-345 169-345 342s167 340 340 340c172 0 315-166 315-340zm-820 0c0-260 250-507 510-507 131 0 236 50 315 149v-515h167V0H865v-128C782-29 675 21 545 21 285 21 40-224 40-484" id="X"/><path fill="#3a414a" d="M233-1172c-50 0-96-44-96-94 0-49 46-93 96-93s96 43 96 93c0 52-44 94-96 94zM26-970h289V0H150v-805H26v-165" id="Y"/><path fill="#3a414a" d="M395 0C260 4 152-110 152-245v-560H6v-165c76 0 121-15 136-44 7-13 10-65 10-156h165v200h235v165H317v560c-9 115 138 72 235 80V0H395" id="Z"/><path fill="#3a414a" d="M838-484c0-173-151-342-322-342-177 0-319 167-319 342 0 176 146 340 319 340 171 0 322-167 322-340zm-807 0c0-265 224-507 485-507 260 0 487 246 487 507 0 260-229 505-487 505C255 21 31-224 31-484" id="aa"/><path fill="#3a414a" d="M530-826c-179 0-312 160-312 342V0H53v-970h165v127c78-99 182-148 312-148 289 0 456 203 456 499V0H819v-484c2-203-95-342-289-342" id="ab"/><path fill="#3a414a" d="M125-1357h167V0H125v-1357" id="ac"/><g id="k"><use transform="matrix(0.01627604166666666,0,0,0.01627604166666666,0,0)" xlink:href="#U"/><use transform="matrix(0.01627604166666666,0,0,0.01627604166666666,17.74088541666666,0)" xlink:href="#V"/><use transform="matrix(0.01627604166666666,0,0,0.01627604166666666,30.875651041666657,0)" xlink:href="#W"/><use transform="matrix(0.01627604166666666,0,0,0.01627604166666666,48.714192708333314,0)" xlink:href="#X"/><use transform="matrix(0.01627604166666666,0,0,0.01627604166666666,68.31054687499997,0)" xlink:href="#Y"/><use transform="matrix(0.01627604166666666,0,0,0.01627604166666666,75.30924479166663,0)" xlink:href="#Z"/><use transform="matrix(0.01627604166666666,0,0,0.01627604166666666,85.75846354166661,0)" xlink:href="#Y"/><use transform="matrix(0.01627604166666666,0,0,0.01627604166666666,92.75716145833329,0)" xlink:href="#aa"/><use transform="matrix(0.01627604166666666,0,0,0.01627604166666666,111.55598958333329,0)" xlink:href="#ab"/><use transform="matrix(0.01627604166666666,0,0,0.01627604166666666,130.22460937499994,0)" xlink:href="#W"/><use transform="matrix(0.01627604166666666,0,0,0.01627604166666666,148.0631510416666,0)" xlink:href="#ac"/></g><path fill="#3a414a" d="M1139-1357h173L1069 0H901L669-978 434 0H271L28-1357h171l170 952 221-952h155l228 953" id="ad"/><path fill="#3a414a" d="M528-826c-169 0-310 170-310 342V0H53v-1357h165v515c80-99 183-149 310-149 256 0 429 236 429 499V0H792v-484c3-179-95-342-264-342" id="ae"/><g id="l"><use transform="matrix(0.01627604166666666,0,0,0.01627604166666666,0,0)" xlink:href="#ad"/><use transform="matrix(0.01627604166666666,0,0,0.01627604166666666,24.235026041666657,0)" xlink:href="#Y"/><use transform="matrix(0.01627604166666666,0,0,0.01627604166666666,31.23372395833332,0)" xlink:href="#Z"/><use transform="matrix(0.01627604166666666,0,0,0.01627604166666666,41.682942708333314,0)" xlink:href="#ae"/></g><path fill="#3a414a" d="M816-616c-46-109-154-210-294-210-133 0-258 109-301 210h595zM31-484c0-260 230-507 491-507 282 0 495 254 487 541H196c10 148 163 311 326 306 147-5 277-104 326-215l166 28C947-150 753 16 522 21 260 27 31-223 31-484" id="af"/><path fill="#3a414a" d="M1018-991c257 0 359 224 359 507V0h-166v-484c0-228-64-342-193-342-155-1-215 166-215 342V0H637l-1-484c0-228-64-342-193-342-159-1-225 164-225 342V0H53v-970h165v68c59-59 134-89 225-89 133 0 229 56 286 168 46-112 142-168 289-168" id="ag"/><path fill="#3a414a" d="M223-484c0 174 142 340 313 340 169 0 319-168 319-340 0-174-147-342-319-342-173 0-313 166-313 342zm798 0c0 261-225 505-485 505-129 0-235-50-318-149v516H53V-970h165v128c83-99 189-149 318-149 260 0 485 246 485 507" id="ah"/><g id="m"><use transform="matrix(0.01627604166666666,0,0,0.01627604166666666,0,0)" xlink:href="#U"/><use transform="matrix(0.01627604166666666,0,0,0.01627604166666666,17.74088541666666,0)" xlink:href="#af"/><use transform="matrix(0.01627604166666666,0,0,0.01627604166666666,36.53971354166666,0)" xlink:href="#ag"/><use transform="matrix(0.01627604166666666,0,0,0.01627604166666666,62.207031249999986,0)" xlink:href="#ah"/><use transform="matrix(0.01627604166666666,0,0,0.01627604166666666,80.81054687499997,0)" xlink:href="#aa"/><use transform="matrix(0.01627604166666666,0,0,0.01627604166666666,99.60937499999997,0)" xlink:href="#V"/><use transform="matrix(0.01627604166666666,0,0,0.01627604166666666,112.74414062499997,0)" xlink:href="#W"/><use transform="matrix(0.01627604166666666,0,0,0.01627604166666666,130.58268229166663,0)" xlink:href="#ac"/></g><path fill="#3a414a" d="M218-1357v689h516v-689h165V0H734v-503H218V0H53v-1357h165" id="ai"/><path fill="#3a414a" d="M263-165h613V0H47v-191l582-614H48v-165h828v158" id="aj"/><path fill="#3a414a" d="M227 223c70 1 118-13 144-44 18-20 89-200 113-260L-1-970h190l373 688 274-688h179L558 176c-61 148-166 217-331 211V223" id="ak"/><g id="n"><use transform="matrix(0.010850694444444435,0,0,0.010850694444444435,0,0)" xlink:href="#ai"/><use transform="matrix(0.010850694444444435,0,0,0.010850694444444435,11.610243055555546,0)" xlink:href="#aa"/><use transform="matrix(0.010850694444444435,0,0,0.010850694444444435,24.142795138888875,0)" xlink:href="#V"/><use transform="matrix(0.010850694444444435,0,0,0.010850694444444435,33.767361111111086,0)" xlink:href="#Y"/><use transform="matrix(0.010850694444444435,0,0,0.010850694444444435,38.43315972222219,0)" xlink:href="#aj"/><use transform="matrix(0.010850694444444435,0,0,0.010850694444444435,49.60937499999996,0)" xlink:href="#aa"/><use transform="matrix(0.010850694444444435,0,0,0.010850694444444435,62.14192708333328,0)" xlink:href="#ab"/><use transform="matrix(0.010850694444444435,0,0,0.010850694444444435,74.58767361111104,0)" xlink:href="#Z"/><use transform="matrix(0.010850694444444435,0,0,0.010850694444444435,81.55381944444437,0)" xlink:href="#W"/><use transform="matrix(0.010850694444444435,0,0,0.010850694444444435,93.44618055555547,0)" xlink:href="#ac"/><use transform="matrix(0.010850694444444435,0,0,0.010850694444444435,98.13368055555547,0)" xlink:href="#ac"/><use transform="matrix(0.010850694444444435,0,0,0.010850694444444435,102.82118055555547,0)" xlink:href="#ak"/></g><path fill="#3a414a" d="M68-580C-45-823 215-987 454-987c229 0 422 106 446 301l-161 34c-17-73-62-125-139-149-121-38-274-36-352 29-25 21-38 44-38 71 0 66 59 112 178 131 86 13 176 12 261 32 115 27 244 96 244 266 0 81-40 141-102 191C645 38 359 49 192-49 101-102 48-180 33-282l163-35c5 118 149 172 287 172 93 0 238-46 238-127 0-45-37-74-103-103-48-21-337-53-386-71-61-22-144-92-164-134" id="al"/><path fill="#3a414a" d="M30-484c0-265 224-507 485-507 196 0 345 102 446 305H770c-63-93-148-140-255-140-177 0-319 167-319 342 0 176 146 340 319 340 93 0 176-43 249-128h193C846-77 699 21 515 21 254 21 30-224 30-484" id="am"/><path fill="#3a414a" d="M878-484c0-170-176-342-346-342-173 0-309 165-309 342 0 174 142 340 314 340 171 0 341-169 341-340zm165 0c0 259-247 505-506 505-129 0-236-50-319-149V0H51v-1357h167v515c79-99 183-149 314-149 260 0 511 247 511 507" id="an"/><g id="o"><use transform="matrix(0.010850694444444435,0,0,0.010850694444444435,0,0)" xlink:href="#al"/><use transform="matrix(0.010850694444444435,0,0,0.010850694444444435,11.208767361111102,0)" xlink:href="#am"/><use transform="matrix(0.010850694444444435,0,0,0.010850694444444435,22.58029513888887,0)" xlink:href="#W"/><use transform="matrix(0.010850694444444435,0,0,0.010850694444444435,34.47265624999997,0)" xlink:href="#ac"/><use transform="matrix(0.010850694444444435,0,0,0.010850694444444435,39.16015624999997,0)" xlink:href="#W"/><use transform="matrix(0.010850694444444435,0,0,0.010850694444444435,51.05251736111107,0)" xlink:href="#an"/><use transform="matrix(0.010850694444444435,0,0,0.010850694444444435,63.72612847222217,0)" xlink:href="#ac"/><use transform="matrix(0.010850694444444435,0,0,0.010850694444444435,68.41362847222217,0)" xlink:href="#af"/></g><path fill="#3a414a" d="M543 22C276 22 65-235 65-506v-849h130v867c-5 202 149 380 348 380s349-180 349-384v-863h130v849c8 271-212 528-479 528" id="ao"/><g id="p"><use transform="matrix(0.010850694444444444,0,0,0.010850694444444444,0,0)" xlink:href="#ao"/><use transform="matrix(0.010850694444444444,0,0,0.010850694444444444,12.47829861111111,0)" xlink:href="#P"/><use transform="matrix(0.010850694444444444,0,0,0.010850694444444444,23.36154513888889,0)" xlink:href="#B"/></g><g id="q"><use transform="matrix(0.010850694444444444,0,0,0.010850694444444444,0,0)" xlink:href="#A"/><use transform="matrix(0.010850694444444444,0,0,0.010850694444444444,11.50173611111111,0)" xlink:href="#B"/><use transform="matrix(0.010850694444444444,0,0,0.010850694444444444,23.70876736111111,0)" xlink:href="#C"/><use transform="matrix(0.010850694444444444,0,0,0.010850694444444444,40.494791666666664,0)" xlink:href="#D"/><use transform="matrix(0.010850694444444444,0,0,0.010850694444444444,52.57161458333333,0)" xlink:href="#E"/><use transform="matrix(0.010850694444444444,0,0,0.010850694444444444,64.77864583333333,0)" xlink:href="#F"/><use transform="matrix(0.010850694444444444,0,0,0.010850694444444444,73.20963541666666,0)" xlink:href="#G"/><use transform="matrix(0.010850694444444444,0,0,0.010850694444444444,84.77647569444443,0)" xlink:href="#H"/></g><path fill="#3a414a" d="M540 22C268 22 57-229 57-506v-345c-8-277 211-528 483-528 249 0 439 198 473 423H885c-28-159-165-293-345-293-205 0-353 174-353 382v377c-5 208 148 382 353 382 180 0 318-134 345-293h128C979-176 789 22 540 22" id="ap"/><path fill="#3a414a" d="M204-1355v1225h596V0H74v-1355h130" id="aq"/><path fill="#3a414a" d="M49-130h171v-1096H49v-129h479v129H352v1096h176V0H49v-130" id="ar"/><g id="r"><use transform="matrix(0.010850694444444444,0,0,0.010850694444444444,0,0)" xlink:href="#ap"/><use transform="matrix(0.010850694444444444,0,0,0.010850694444444444,11.979166666666666,0)" xlink:href="#aq"/><use transform="matrix(0.010850694444444444,0,0,0.010850694444444444,21.864149305555557,0)" xlink:href="#ar"/></g><path fill="#3a414a" d="M431-1222c-103-2-191 65-188 167v98h188v130H243V0H111v-827H33v-130h78c-7-146 8-241 94-317 61-53 135-81 226-81v133" id="as"/><g id="s"><use transform="matrix(0.010850694444444444,0,0,0.010850694444444444,0,0)" xlink:href="#as"/><use transform="matrix(0.010850694444444444,0,0,0.010850694444444444,5.262586805555555,0)" xlink:href="#E"/><use transform="matrix(0.010850694444444444,0,0,0.010850694444444444,17.469618055555557,0)" xlink:href="#F"/></g><g id="t"><use transform="matrix(0.010850694444444444,0,0,0.010850694444444444,0,0)" xlink:href="#H"/><use transform="matrix(0.010850694444444444,0,0,0.010850694444444444,3.8519965277777777,0)" xlink:href="#E"/><use transform="matrix(0.010850694444444444,0,0,0.010850694444444444,16.05902777777778,0)" xlink:href="#K"/><use transform="matrix(0.010850694444444444,0,0,0.010850694444444444,27.82118055555556,0)" xlink:href="#G"/><use transform="matrix(0.010850694444444444,0,0,0.010850694444444444,39.388020833333336,0)" xlink:href="#H"/></g><path fill="#3a414a" d="M-2-478c0-256 249-501 505-501 147 0 261 65 343 196v-572h132V0H846v-174C761-43 645 22 498 22 243 22-2-223-2-478zm843 0c0-191-151-371-338-371S128-665 128-478s183 370 370 370c188 0 343-180 343-370" id="at"/><g id="u"><use transform="matrix(0.010850694444444444,0,0,0.010850694444444444,0,0)" xlink:href="#at"/><use transform="matrix(0.010850694444444444,0,0,0.010850694444444444,12.076822916666666,0)" xlink:href="#B"/><use transform="matrix(0.010850694444444444,0,0,0.010850694444444444,23.763020833333332,0)" xlink:href="#T"/><use transform="matrix(0.010850694444444444,0,0,0.010850694444444444,34.62456597222222,0)" xlink:href="#B"/><use transform="matrix(0.010850694444444444,0,0,0.010850694444444444,46.83159722222222,0)" xlink:href="#H"/><use transform="matrix(0.010850694444444444,0,0,0.010850694444444444,50.68359375,0)" xlink:href="#E"/><use transform="matrix(0.010850694444444444,0,0,0.010850694444444444,62.890625,0)" xlink:href="#D"/><use transform="matrix(0.010850694444444444,0,0,0.010850694444444444,74.96744791666667,0)" xlink:href="#C"/><use transform="matrix(0.010850694444444444,0,0,0.010850694444444444,91.75347222222221,0)" xlink:href="#B"/><use transform="matrix(0.010850694444444444,0,0,0.010850694444444444,103.96050347222224,0)" xlink:href="#M"/><use transform="matrix(0.010850694444444444,0,0,0.010850694444444444,116.08072916666666,0)" xlink:href="#L"/></g><path fill="#3a414a" d="M483-108c191 0 291-169 291-370v-479h130V0H774v-137C701-31 604 22 483 22 219 22 67-183 67-456v-501h130v501c-4 182 112 348 286 348" id="au"/><g id="w"><use transform="matrix(0.010850694444444444,0,0,0.010850694444444444,0,0)" xlink:href="#ap"/><use transform="matrix(0.010850694444444444,0,0,0.010850694444444444,11.979166666666666,0)" xlink:href="#H"/><use transform="matrix(0.010850694444444444,0,0,0.010850694444444444,15.831163194444445,0)" xlink:href="#E"/><use transform="matrix(0.010850694444444444,0,0,0.010850694444444444,28.038194444444443,0)" xlink:href="#au"/><use transform="matrix(0.010850694444444444,0,0,0.010850694444444444,39.322916666666664,0)" xlink:href="#at"/></g><g id="x"><use transform="matrix(0.010850694444444444,0,0,0.010850694444444444,0,0)" xlink:href="#D"/><use transform="matrix(0.010850694444444444,0,0,0.010850694444444444,12.076822916666666,0)" xlink:href="#F"/><use transform="matrix(0.010850694444444444,0,0,0.010850694444444444,20.16059027777778,0)" xlink:href="#E"/><use transform="matrix(0.010850694444444444,0,0,0.010850694444444444,32.36762152777778,0)" xlink:href="#at"/><use transform="matrix(0.010850694444444444,0,0,0.010850694444444444,44.44444444444444,0)" xlink:href="#au"/><use transform="matrix(0.010850694444444444,0,0,0.010850694444444444,55.729166666666664,0)" xlink:href="#K"/><use transform="matrix(0.010850694444444444,0,0,0.010850694444444444,67.49131944444444,0)" xlink:href="#L"/><use transform="matrix(0.010850694444444444,0,0,0.010850694444444444,74.13194444444444,0)" xlink:href="#J"/><use transform="matrix(0.010850694444444444,0,0,0.010850694444444444,78.47222222222221,0)" xlink:href="#E"/><use transform="matrix(0.010850694444444444,0,0,0.010850694444444444,90.67925347222221,0)" xlink:href="#M"/></g><g id="y"><use transform="matrix(0.010850694444444444,0,0,0.010850694444444444,0,0)" xlink:href="#ap"/><use transform="matrix(0.010850694444444444,0,0,0.010850694444444444,11.979166666666666,0)" xlink:href="#E"/><use transform="matrix(0.010850694444444444,0,0,0.010850694444444444,24.186197916666664,0)" xlink:href="#C"/><use transform="matrix(0.010850694444444444,0,0,0.010850694444444444,40.972222222222214,0)" xlink:href="#C"/><use transform="matrix(0.010850694444444444,0,0,0.010850694444444444,57.75824652777778,0)" xlink:href="#au"/><use transform="matrix(0.010850694444444444,0,0,0.010850694444444444,69.04296875,0)" xlink:href="#M"/><use transform="matrix(0.010850694444444444,0,0,0.010850694444444444,81.16319444444444,0)" xlink:href="#J"/><use transform="matrix(0.010850694444444444,0,0,0.010850694444444444,85.50347222222221,0)" xlink:href="#K"/><use transform="matrix(0.010850694444444444,0,0,0.010850694444444444,97.26562499999997,0)" xlink:href="#G"/><use transform="matrix(0.010850694444444444,0,0,0.010850694444444444,108.31163194444441,0)" xlink:href="#L"/><use transform="matrix(0.010850694444444444,0,0,0.010850694444444444,114.95225694444441,0)" xlink:href="#J"/><use transform="matrix(0.010850694444444444,0,0,0.010850694444444444,119.2925347222222,0)" xlink:href="#E"/><use transform="matrix(0.010850694444444444,0,0,0.010850694444444444,131.4995659722222,0)" xlink:href="#M"/></g><path fill="#3a414a" d="M543-849c-184 0-339 185-339 371V0H74v-1355h130v572c84-131 197-196 339-196 250 0 421 235 421 493V0H834v-478c4-195-107-371-291-371" id="av"/><g id="z"><use transform="matrix(0.010850694444444444,0,0,0.010850694444444444,0,0)" xlink:href="#K"/><use transform="matrix(0.010850694444444444,0,0,0.010850694444444444,11.762152777777777,0)" xlink:href="#av"/><use transform="matrix(0.010850694444444444,0,0,0.010850694444444444,23.16623263888889,0)" xlink:href="#G"/><use transform="matrix(0.010850694444444444,0,0,0.010850694444444444,34.733072916666664,0)" xlink:href="#M"/><use transform="matrix(0.010850694444444444,0,0,0.010850694444444444,46.85329861111111,0)" xlink:href="#M"/><use transform="matrix(0.010850694444444444,0,0,0.010850694444444444,58.97352430555555,0)" xlink:href="#B"/><use transform="matrix(0.010850694444444444,0,0,0.010850694444444444,71.18055555555554,0)" xlink:href="#H"/></g></defs></g></svg>