<svg width="102" height="102" viewBox="0 0 102 102" fill="none" xmlns="http://www.w3.org/2000/svg">
<rect x="0.160156" y="0.473145" width="101.053" height="101.053" fill="#FECB2F"/>
<g clip-path="url(#clip0_4668_11528)">
<path d="M19.9575 65.2093C19.3099 65.2093 18.7595 64.9879 18.3062 64.5447C17.8529 64.0902 17.6262 63.5506 17.6262 62.9258C17.6262 62.2894 17.8529 61.7442 18.3062 61.2897C18.7595 60.8351 19.3099 60.6079 19.9575 60.6079C20.6159 60.6079 21.1717 60.8351 21.6251 61.2897C22.0892 61.7442 22.3212 62.2894 22.3212 62.9258C22.3212 63.5506 22.0892 64.0902 21.6251 64.5447C21.1717 64.9879 20.6159 65.2093 19.9575 65.2093Z" fill="#181925"/>
<path d="M45.8453 64.8345H41.6362L30.5462 46.8717C30.2656 46.4172 30.0335 45.9457 29.85 45.4571H29.7529C29.8392 45.9798 29.8824 47.0989 29.8824 48.8145V64.8345H26.1588V40.3955H30.6433L41.3608 57.9323C41.8141 58.6595 42.1055 59.1594 42.2351 59.4321H42.3C42.1919 58.7844 42.1379 57.688 42.1379 56.1428V40.3955H45.8453V64.8345Z" fill="#181925"/>
<path d="M63.9784 64.8345H50.9458V40.3955H63.4604V43.8381H54.7989V50.7574H62.7803V54.1829H54.7989V61.409H63.9784V64.8345Z" fill="#181925"/>
<path d="M82.5 43.8381H75.8299V64.8345H71.9768V43.8381H65.3228V40.3955H82.5V43.8381Z" fill="#181925"/>
</g>
<defs>
<clipPath id="clip0_4668_11528">
<rect width="64.8738" height="24.9515" fill="white" transform="translate(17.6262 40.3955)"/>
</clipPath>
</defs>
</svg>
