<svg xmlns="http://www.w3.org/2000/svg" width="102" height="102" viewBox="0 0 102 102" fill="none">
  <rect x="0.26709" y="0.473145" width="101.053" height="101.053" fill="#01A7EC"/>
  <path d="M15.0262 49.4615C14.8707 49.4615 14.8318 49.3835 14.9095 49.2664L15.7259 48.2129C15.8037 48.0958 15.998 48.0178 16.1535 48.0178H30.0319C30.1874 48.0178 30.2263 48.1348 30.1486 48.2519L29.4877 49.2664C29.4099 49.3835 29.2156 49.5005 29.0989 49.5005L15.0262 49.4615Z" fill="#181925"/>
  <path d="M9.15599 53.0514C9.00049 53.0514 8.96161 52.9734 9.03936 52.8563L9.85574 51.8028C9.93349 51.6857 10.1279 51.6077 10.2834 51.6077H28.0104C28.1659 51.6077 28.2437 51.7248 28.2048 51.8418L27.8938 52.7783C27.8549 52.9344 27.6994 53.0124 27.5439 53.0124L9.15599 53.0514Z" fill="#181925"/>
  <path d="M18.5638 56.6414C18.4083 56.6414 18.3695 56.5243 18.4472 56.4072L18.9915 55.4317C19.0692 55.3147 19.2247 55.1976 19.3802 55.1976H27.1552C27.3107 55.1976 27.3885 55.3147 27.3885 55.4708L27.3107 56.4072C27.3107 56.5633 27.1552 56.6804 27.0386 56.6804L18.5638 56.6414Z" fill="#181925"/>
  <path d="M58.9162 48.7592C56.4671 49.3835 54.7954 49.8518 52.3852 50.4761C51.802 50.6322 51.7632 50.6712 51.2578 50.0859C50.6747 49.4225 50.247 48.9933 49.4307 48.6031C46.9815 47.3935 44.6101 47.7447 42.3943 49.1884C39.7508 50.9053 38.3901 53.4416 38.429 56.6023C38.4679 59.7239 40.606 62.2992 43.6771 62.7284C46.3206 63.0796 48.5365 62.1431 50.2859 60.1531C50.6358 59.7239 50.9468 59.2556 51.3355 58.7093C49.936 58.7093 48.1867 58.7093 43.8326 58.7093C43.0163 58.7093 42.8219 58.2021 43.094 57.5387C43.5994 56.3291 44.5324 54.3001 45.0766 53.2855C45.1933 53.0514 45.4654 52.6612 46.0485 52.6612C48.0312 52.6612 55.3397 52.6612 60.1991 52.6612C60.1213 53.7148 60.1213 54.7683 59.9658 55.8218C59.5382 58.6313 58.4886 61.2066 56.778 63.4698C53.979 67.1767 50.3248 69.4789 45.6986 70.1032C41.8889 70.6105 38.3513 69.8691 35.2412 67.5279C32.3645 65.3428 30.7317 62.4553 30.3041 58.8654C29.7987 54.6122 31.0427 50.7883 33.6085 47.4325C36.3686 43.8037 40.0229 41.5015 44.4935 40.682C48.1478 40.0187 51.6465 40.4479 54.7954 42.594C56.8558 43.9597 58.3331 45.8327 59.3049 48.0959C59.5382 48.447 59.3827 48.6421 58.9162 48.7592Z" fill="#181925"/>
  <path d="M71.7837 70.3373C68.2461 70.2592 65.0195 69.2447 62.2982 66.9035C60.0046 64.9135 58.5662 62.3771 58.0997 59.3726C57.4 54.9633 58.6051 51.0613 61.2486 47.5885C64.0865 43.8426 67.5075 41.8916 72.1336 41.0722C76.0989 40.3698 79.8309 40.76 83.213 43.0622C86.2842 45.1693 88.189 48.0177 88.6944 51.7637C89.3553 57.0314 87.8392 61.3236 84.2238 64.9915C81.658 67.6058 78.5091 69.2447 74.8938 69.9861C73.8441 70.1812 72.7945 70.2202 71.7837 70.3373ZM81.036 54.5731C80.9971 54.0659 80.9971 53.6757 80.9194 53.2855C80.2196 49.4225 76.682 47.2373 72.9889 48.0958C69.3735 48.9152 67.041 51.2174 66.1857 54.8853C65.486 57.9289 66.9632 61.0114 69.7622 62.2601C71.9004 63.1966 74.0385 63.0795 76.0989 62.026C79.17 60.4261 80.8416 57.9289 81.036 54.5731Z" fill="#181925"/>
</svg>
