<svg xmlns="http://www.w3.org/2000/svg" width="102" height="102" viewBox="0 0 102 102" fill="none">
  <rect x="0.0534668" y="0.473145" width="101.053" height="101.053" fill="#FF6BFF"/>
  <path fill-rule="evenodd" clip-rule="evenodd" d="M49.9634 69.7333C29.9786 69.7333 13.7771 61.2108 13.7771 50.6979C13.7771 40.1852 29.9786 31.6626 49.9634 31.6626C69.9481 31.6626 86.1498 40.1852 86.1498 50.6979C86.1498 61.2108 69.9481 69.7333 49.9634 69.7333ZM50.7653 36.6403L49.7396 41.9177H53.5617C55.9666 41.9177 57.6255 42.3374 58.5384 43.1758C59.4514 44.0148 59.7249 45.3741 59.36 47.2531L57.5648 56.49H53.2064L54.9131 47.7074C55.1073 46.7083 55.036 46.0268 54.6987 45.6635C54.3614 45.3001 53.6437 45.1182 52.546 45.1182H49.117L46.907 56.49H42.6166L46.4749 36.6403H50.7653ZM30.1661 53.3578H32.7966C34.5401 53.3578 35.8388 53.0294 36.6921 52.3726C37.5456 51.7156 38.1212 50.6191 38.4203 49.0826C38.7064 47.6074 38.5761 46.5664 38.0292 45.9599C37.4817 45.3535 36.3868 45.0502 34.7439 45.0502H31.7809L30.1661 53.3578ZM36.3815 41.9178C38.8831 41.9178 40.7081 42.5742 41.8552 43.8873C43.0021 45.2003 43.3475 47.033 42.8899 49.3859C42.7015 50.3552 42.383 51.2414 41.9344 52.0442C41.4854 52.8476 40.899 53.5822 40.1744 54.2483C39.3109 55.0563 38.3516 55.6321 37.2961 55.9751C36.2405 56.319 34.896 56.4901 33.2616 56.4901H29.5574L28.5317 61.7675H24.2072L28.0656 41.9178H36.3815ZM66.5497 53.3578H63.9194L65.5341 45.0502H68.497C70.1399 45.0502 71.2348 45.3535 71.7824 45.9599C72.3293 46.5664 72.4597 47.6074 72.1734 49.0826C71.8743 50.6191 71.2988 51.7156 70.4453 52.3726C69.5919 53.0294 68.2933 53.3578 66.5497 53.3578ZM75.6083 43.8873C74.4612 42.5742 72.6362 41.9178 70.1346 41.9178H61.8189L57.9605 61.7675H62.2849L63.3105 56.4901H67.0147C68.6491 56.4901 69.9936 56.319 71.0492 55.9751C72.1047 55.6321 73.064 55.0563 73.9275 54.2483C74.6521 53.5822 75.2385 52.8476 75.6876 52.0442C76.1361 51.2414 76.4547 50.3552 76.643 49.3859C77.1007 47.033 76.7554 45.2003 75.6083 43.8873Z" fill="#181925"/>
</svg>
