<svg xmlns="http://www.w3.org/2000/svg" width="102" height="102" viewBox="0 0 102 102" fill="none">
  <rect x="0.106812" y="0.473145" width="101.053" height="101.053" fill="#9747FF"/>
  <path d="M50.9234 21.2422C48.456 21.2537 46.0997 21.4641 44.0264 21.831C37.9187 22.91 36.8098 25.1685 36.8098 29.3335V34.8343H51.243V36.6678H36.8098H31.3932C27.1985 36.6678 23.5255 39.1891 22.3767 43.9854C21.0515 49.483 20.9927 52.9136 22.3767 58.654C23.4026 62.927 25.8528 65.9715 30.0474 65.9715H35.0099V59.3774C35.0099 54.6135 39.1317 50.4113 44.0264 50.4113H58.4427C62.4557 50.4113 65.6593 47.1071 65.6593 43.077V29.3335C65.6593 25.422 62.3596 22.4838 58.4427 21.831C55.9633 21.4182 53.3907 21.2307 50.9234 21.2422ZM43.118 25.6663C44.6089 25.6663 45.8263 26.9037 45.8263 28.4251C45.8263 29.9412 44.6089 31.1671 43.118 31.1671C41.6218 31.1671 40.4097 29.9412 40.4097 28.4251C40.4097 26.9037 41.6218 25.6663 43.118 25.6663Z" fill="#181925"/>
  <path d="M67.4608 36.6733V43.0825C67.4608 48.0514 63.2482 52.2336 58.4443 52.2336H44.028C40.0791 52.2336 36.8114 55.6133 36.8114 59.5679V73.3114C36.8114 77.2228 40.2127 79.5235 44.028 80.6457C48.5967 81.9891 52.9779 82.2319 58.4443 80.6457C62.0779 79.5937 65.6609 77.4764 65.6609 73.3114V67.8106H51.2446V65.977H65.6609H72.8775C77.0722 65.977 78.6353 63.0512 80.0941 58.6595C81.6009 54.1384 81.5368 49.7906 80.0941 43.9909C79.0574 39.815 77.0775 36.6733 72.8775 36.6733H67.4608ZM59.3527 71.4778C60.8489 71.4778 62.061 72.7037 62.061 74.2197C62.061 75.7412 60.8489 76.9785 59.3527 76.9785C57.8619 76.9785 56.6444 75.7412 56.6444 74.2197C56.6444 72.7037 57.8619 71.4778 59.3527 71.4778Z" fill="#181925"/>
</svg>
