<svg width="40" height="40" viewBox="0 0 40 40" fill="none" xmlns="http://www.w3.org/2000/svg">
<rect width="40" height="40" fill="#FF6565"/>
<path d="M24.2334 23.8268L21.6079 16.7602L21.9 16.3989L22.1123 15.96L29.8057 16.8626M24.2334 23.8268L29.0237 28.4802M24.2334 23.8268L27.554 20.6011M24.2334 23.8268L16.9591 21.2762L16.5871 21.56L16.1353 21.7663L17.0645 29.2398M24.2334 23.8268L20.9129 27.0525M29.8057 16.8626L29.0237 28.4802M29.8057 16.8626L27.554 20.6011M29.8057 16.8626L29.961 14.2299L30 12.4485L28.9257 10.7726L26.9217 10M29.8057 16.8626L23.3213 11.7108M29.0237 28.4802L27.554 20.6011M29.0237 28.4802L17.0645 29.2398M29.0237 28.4802L20.9129 27.0525M22.255 10.293L21.5752 10.2771L16.9368 11.6807L14.1476 14.0291L11.7302 16.7386L10.2853 21.2445L10.3016 21.9049M22.255 10.293L26.9217 10M22.255 10.293L22.8654 10.8852C23.091 11.1044 23.2414 11.3835 23.3213 11.7108M26.9217 10L23.3213 11.7108M23.3213 11.7108C23.7411 13.4299 22.2163 16.4795 19.4431 19.1733C16.67 21.8672 13.5308 23.3485 11.7611 22.9407M17.0645 29.2398L20.9129 27.0525M17.0645 29.2398L14.3543 29.3907L12.5205 29.4286L10.7954 28.385L10 26.4382M17.0645 29.2398L11.7611 22.9407M10.3016 21.9049L10 26.4382M10.3016 21.9049L10.9113 22.4978C11.1369 22.717 11.4242 22.8631 11.7611 22.9407M10 26.4382L11.7611 22.9407" stroke="url(#paint0_linear_1693_123)" stroke-width="1.25" stroke-linejoin="round"/>
<defs>
<linearGradient id="paint0_linear_1693_123" x1="20" y1="10" x2="20" y2="29.4286" gradientUnits="userSpaceOnUse">
<stop stop-color="#111827"/>
<stop offset="1" stop-color="#141414"/>
</linearGradient>
</defs>
</svg>
