<svg xmlns="http://www.w3.org/2000/svg" width="102" height="102" viewBox="0 0 102 102" fill="none">
  <rect y="0.473145" width="101.053" height="101.053" fill="#FF5555"/>
  <path d="M45.3283 51.456C45.3283 51.456 43.4154 52.6204 46.659 52.953C50.5678 53.452 52.6471 53.3689 56.9718 52.5372C56.9718 52.5372 58.1362 53.2857 59.7164 53.8679C49.9857 58.0263 37.6768 53.6183 45.3283 51.456L45.3283 51.456ZM44.0807 46.0501C44.0807 46.0501 42.0016 47.6303 45.2451 47.9629C49.4867 48.3788 52.8134 48.4619 58.552 47.2976C58.552 47.2976 59.3005 48.1293 60.548 48.5451C48.8213 52.0382 35.6807 48.8778 44.0808 46.0501L44.0807 46.0501ZM67.0352 55.5313C67.0352 55.5313 68.449 56.6957 65.455 57.6104C59.8827 59.2738 42.0846 59.7728 37.0945 57.6104C35.348 56.862 38.6747 55.7807 39.7559 55.6144C40.8371 55.3649 41.4192 55.3649 41.4192 55.3649C39.5064 54.0342 28.6945 58.1094 35.9301 59.2738C55.8073 62.5174 72.1916 57.86 67.035 55.5312L67.0352 55.5313ZM46.2431 40.3946C46.2431 40.3946 37.1778 42.557 42.9996 43.3055C45.4946 43.6381 50.4015 43.5551 54.9758 43.2223C58.7183 42.8897 62.461 42.2243 62.461 42.2243C62.461 42.2243 61.1303 42.8065 60.2154 43.3887C50.9838 45.8005 33.2689 44.7194 38.3421 42.2243C42.6669 40.1451 46.243 40.3946 46.243 40.3946L46.2431 40.3946ZM62.461 49.4599C71.7758 44.6362 67.4511 39.9788 64.457 40.561C63.7085 40.7273 63.3758 40.8937 63.3758 40.8937C63.3758 40.8937 63.6253 40.3946 64.2075 40.2283C70.1125 38.1491 74.7699 46.4659 62.2947 49.7095C62.2947 49.7095 62.3778 49.6263 62.461 49.4599L62.461 49.4599ZM47.158 62.6005C56.1402 63.1828 69.8629 62.2679 70.1956 58.0263C70.1956 58.0263 69.5303 59.6897 62.7936 60.9372C55.1422 62.3511 45.661 62.1847 40.0887 61.2698C40.0887 61.2698 41.253 62.2679 47.158 62.6005L47.158 62.6005Z" fill="#181925"/>
  <path d="M56.8056 12.9492C56.8056 12.9492 61.962 18.1888 51.8987 26.0898C43.8313 32.4937 50.069 36.1531 51.8987 40.3115C47.1581 36.07 43.7482 32.3274 46.0769 28.8343C49.4868 23.6779 58.8848 21.1829 56.8056 12.9492V12.9492ZM54.1443 36.8185C56.5561 39.5631 53.4789 42.0582 53.4789 42.0582C53.4789 42.0582 59.6333 38.8977 56.8056 34.9888C54.2273 31.2463 52.2313 29.4166 63.0432 23.1789C63.0432 23.1789 45.9937 27.4205 54.1443 36.8185L54.1443 36.8185ZM47.9898 81.4799V73.3294C47.9898 71.2501 46.8254 69.8363 43.9145 69.8363C42.2511 69.8363 40.8373 70.2521 39.5897 70.7511L40.0056 72.2482C40.9204 71.9155 42.0848 71.5828 43.3323 71.5828C44.9125 71.5828 45.661 72.2482 45.661 73.5789V74.6601H44.8294C40.8373 74.6601 39.0076 76.1571 39.0076 78.5689C39.0076 80.565 40.2551 81.7293 42.5007 81.7293C43.9145 81.7293 44.9957 81.064 45.9937 80.2323L46.1601 81.4799H47.9898L47.9898 81.4799ZM45.661 78.8185C44.8294 79.567 43.9145 79.9829 43.0828 79.9829C42.0017 79.9829 41.3363 79.3175 41.3363 78.1532C41.3363 76.9888 42.0017 76.1571 44.6631 76.1571H45.661V78.8185H45.661ZM55.8076 81.4799H52.8966L49.4036 70.0858H51.8987L54.061 77.0719L54.56 79.1511C55.6412 76.1571 56.473 73.0798 56.8056 70.0858H59.3007C58.6353 73.8284 57.471 77.9036 55.8076 81.4799H55.8076ZM69.2808 81.4799V73.3294C69.2808 71.2501 68.1165 69.8363 65.2056 69.8363C63.5422 69.8363 62.1284 70.2521 60.8808 70.7511L61.2135 72.2482C62.2115 71.9155 63.3759 71.5828 64.6234 71.5828C66.2036 71.5828 66.9521 72.2482 66.9521 73.5789V74.6601H66.1205C62.1284 74.6601 60.2987 76.1571 60.2987 78.5689C60.2987 80.565 61.463 81.7293 63.7086 81.7293C65.2056 81.7293 66.2868 81.064 67.2848 80.2323L67.4512 81.4799H69.2808V81.4799ZM66.9521 78.8185C66.1205 79.567 65.2056 79.9829 64.3739 79.9829C63.2927 79.9829 62.6274 79.3175 62.6274 78.1532C62.6274 76.9888 63.2927 76.1571 65.9541 76.1571H66.9521V78.8185H66.9521ZM36.4293 83.3927C35.764 84.3907 34.7659 85.1393 33.5185 85.5551L32.4373 84.2244C33.2689 83.7254 34.1006 82.9769 34.4333 82.3115C34.7659 81.7294 34.8492 80.8976 34.8492 78.9848V66.0106H37.3442V78.8185C37.3442 81.3967 37.0947 82.3947 36.4293 83.3927L36.4293 83.3927Z" fill="#181925"/>
</svg>
