<svg xmlns="http://www.w3.org/2000/svg" width="102" height="102" viewBox="0 0 102 102" fill="none">
  <rect x="0.213623" y="0.473145" width="101.053" height="101.053" fill="#59FDA0"/>
  <path fill-rule="evenodd" clip-rule="evenodd" d="M31.7951 31.0303H69.0166C70.0799 31.0303 70.9419 31.8922 70.9419 32.9555V70.177C70.9419 71.2403 70.0799 72.1023 69.0166 72.1023H31.7951C30.7318 72.1023 29.8699 71.2403 29.8699 70.177V32.9555C29.8699 31.8922 30.7318 31.0303 31.7951 31.0303ZM53.6984 67.4477V62.9471C54.5117 63.6315 55.3951 64.1449 56.3486 64.487C57.3021 64.8293 58.2649 65.0004 59.2371 65.0004C59.8073 65.0004 60.3051 64.9487 60.7304 64.8457C61.1558 64.7427 61.511 64.5996 61.7961 64.4167C62.0812 64.2338 62.294 64.0182 62.4342 63.7698C62.5744 63.5215 62.6444 63.2519 62.6444 62.9611C62.6444 62.5673 62.5324 62.2158 62.3078 61.9063C62.0835 61.597 61.7774 61.311 61.3895 61.0484C61.0015 60.7859 60.5411 60.5328 60.0083 60.289C59.4755 60.0452 58.9006 59.7967 58.2836 59.5436C56.7131 58.8873 55.5423 58.0856 54.7711 57.1386C53.9999 56.1917 53.6143 55.0478 53.6143 53.7071C53.6143 52.6569 53.8246 51.7545 54.2453 50.9997C54.6659 50.245 55.2385 49.6238 55.963 49.1363C56.6874 48.6487 57.5264 48.2901 58.4799 48.0604C59.4334 47.8306 60.443 47.7158 61.5086 47.7158C62.5558 47.7158 63.4834 47.7791 64.292 47.9057C65.1006 48.0323 65.846 48.2268 66.5285 48.4893V52.6944C66.1919 52.46 65.8252 52.2538 65.4279 52.0756C65.0304 51.8975 64.6216 51.7498 64.2009 51.6326C63.7802 51.5154 63.3618 51.4287 62.946 51.3724C62.5298 51.3162 62.1351 51.288 61.761 51.288C61.2469 51.288 60.7795 51.3373 60.3589 51.4357C59.9382 51.5342 59.583 51.6725 59.2932 51.8506C59.0034 52.0287 58.7791 52.2421 58.6201 52.4905C58.4612 52.739 58.3818 53.0179 58.3818 53.3273C58.3818 53.6649 58.4706 53.9673 58.6482 54.2344C58.8258 54.5017 59.0782 54.7548 59.4054 54.9939C59.7325 55.233 60.1298 55.4674 60.5972 55.6971C61.0646 55.9268 61.5928 56.1636 62.1816 56.4073C62.9858 56.7449 63.7077 57.1035 64.3482 57.4832C64.9883 57.863 65.5377 58.2919 65.9956 58.7701C66.4538 59.2483 66.8042 59.7944 67.0474 60.4085C67.2903 61.0227 67.4119 61.7376 67.4119 62.5533C67.4119 63.6784 67.1992 64.623 66.774 65.387C66.3485 66.1513 65.7713 66.77 65.0422 67.2436C64.3129 67.7172 63.4648 68.057 62.4971 68.2633C61.5297 68.4697 60.5084 68.5727 59.4334 68.5727C58.3303 68.5727 57.2811 68.479 56.2855 68.2913C55.2899 68.1039 54.4276 67.8225 53.6984 67.4477ZM52.0099 51.7442H46.1387V68.2518H41.4878V51.7442H35.6453V48.0367H52.0099V51.7442Z" fill="#181925"/>
</svg>
